<svg xmlns="http://www.w3.org/2000/svg" viewBox="0 0 353.69 75">
  <defs>
    <style>
      .cls-1 {
        isolation: isolate;
      }

      .cls-2 {
        fill: #f6f5f3;
      }

      .cls-3 {
        fill: #d4b483;
      }
    </style>
  </defs>
  <g id="Layer_2" data-name="Layer 2">
    <g id="Layer_4" data-name="Layer 4">
      <g id="Title_Component" data-name="Title Component">
        <g id="Booksy" class="cls-1">
          <g class="cls-1">
            <path class="cls-2" d="M100.57,50.37V5.49c0-2.72,1.52-4.24,4.32-4.24h20.72c9.52,0,15,5.84,15,13.6,0,6.72-4.4,11.2-9.28,12.24,5.68.88,10.32,6.64,10.32,13.12,0,8.4-5.6,14.4-15.44,14.4H104.89C102.09,54.61,100.57,53.09,100.57,50.37Zm23.52-26.48c5.36,0,8.32-3.36,8.32-7.76s-3-7.84-8.32-7.84H108.57v15.6Zm.4,23.68c5.6,0,9-3.2,9-8.4,0-4.4-3-8.24-9-8.24H108.57V47.57Z"/>
            <path class="cls-2" d="M149.05,35.25c0-11.12,7.52-20.24,19.52-20.24s19.52,9.12,19.52,20.24-7.44,20.32-19.52,20.32S149.05,46.45,149.05,35.25Zm31.52,0c0-7.28-4.24-13.84-12-13.84s-12,6.56-12,13.84,4.32,13.92,12,13.92S180.57,42.61,180.57,35.25Z"/>
            <path class="cls-2" d="M194.81,35.25c0-11.12,7.52-20.24,19.52-20.24s19.52,9.12,19.52,20.24-7.44,20.32-19.52,20.32S194.81,46.45,194.81,35.25Zm31.52,0c0-7.28-4.24-13.84-12-13.84s-12,6.56-12,13.84,4.32,13.92,12,13.92S226.33,42.61,226.33,35.25Z"/>
            <path class="cls-2" d="M275.85,51.41a3.52,3.52,0,0,1-3.52,3.6,3.38,3.38,0,0,1-2.8-1.2L256.17,38.05l-6,5.6v7.76a3.65,3.65,0,0,1-3.68,3.6,3.57,3.57,0,0,1-3.52-3.6v-47a3.59,3.59,0,0,1,3.6-3.6,3.64,3.64,0,0,1,3.6,3.6V35.57l19.44-19.12a3.13,3.13,0,0,1,2.32-.88,3.36,3.36,0,0,1,3.28,3.36,3.44,3.44,0,0,1-1,2.32l-12.72,12.4L275,49A3.86,3.86,0,0,1,275.85,51.41Z"/>
            <path class="cls-2" d="M281.21,48.69a3.07,3.07,0,0,1,3.12-3.12,3.28,3.28,0,0,1,1.76.56A18.72,18.72,0,0,0,297,49.81c5.44,0,8.32-2.24,8.32-5.52,0-3.84-4.4-5.12-9.36-6.24-6.56-1.52-14.24-3.28-14.24-11.6C281.69,20.29,287,15,296.41,15a21.29,21.29,0,0,1,12.88,4,2.94,2.94,0,0,1-1.68,5.36,2.76,2.76,0,0,1-1.6-.56,16,16,0,0,0-9.52-3c-4.88,0-7.92,1.92-7.92,5,0,3.36,4.16,4.48,9,5.6,6.72,1.52,14.72,3.36,14.72,12.24,0,6.64-5.44,11.84-15.6,11.84a22.83,22.83,0,0,1-14.08-4.32A3.18,3.18,0,0,1,281.21,48.69Z"/>
            <path class="cls-2" d="M322.89,63.81c.24,0,.48.08.88.08,2.64,0,4.4-.88,5.6-3.76L331.61,55,317.45,20.53a4,4,0,0,1-.16-1.36,3.52,3.52,0,0,1,3.52-3.6,3.7,3.7,0,0,1,3.36,2.24l11.28,28.48,11.28-28.48a3.62,3.62,0,0,1,7,1.36,4.67,4.67,0,0,1-.32,1.44L336.25,62c-2.4,6.08-6.72,8.24-12.32,8.32a9.71,9.71,0,0,1-1.44-.08,3.22,3.22,0,0,1-3-3.2A3.3,3.3,0,0,1,322.89,63.81Z"/>
          </g>
        </g>
        <g id="Share_the_Old._Discover_the_New" data-name="Share the Old. Discover the New" class="cls-1">
          <g class="cls-1">
            <path class="cls-3" d="M99.33,70.07a.73.73,0,0,1,.72-.72.78.78,0,0,1,.45.15,4.18,4.18,0,0,0,2.65,1c1.62,0,2.19-.83,2.19-1.55,0-1-1.14-1.35-2.41-1.68-1.61-.42-3.47-.88-3.47-2.92,0-1.65,1.46-2.85,3.66-2.85a5.12,5.12,0,0,1,3.09,1,.65.65,0,0,1,.32.57.72.72,0,0,1-.71.72.77.77,0,0,1-.42-.13,3.83,3.83,0,0,0-2.4-.8c-1.23,0-2,.57-2,1.41s1.08,1.19,2.32,1.5c1.64.44,3.54,1,3.54,3.08,0,1.56-1.08,3-3.78,3a5.36,5.36,0,0,1-3.48-1.15A.75.75,0,0,1,99.33,70.07Z"/>
            <path class="cls-3" d="M113.47,71V67c0-1.2-.61-1.56-1.54-1.56a2.6,2.6,0,0,0-2,1V71a.68.68,0,1,1-1.35,0v-8.8a.68.68,0,1,1,1.35,0v3.18a3.48,3.48,0,0,1,2.57-1.2,2.05,2.05,0,0,1,2.32,2.31V71a.67.67,0,0,1-.67.68A.69.69,0,0,1,113.47,71Z"/>
            <path class="cls-3" d="M122.8,66.72V71a.68.68,0,0,1-.67.68.69.69,0,0,1-.68-.68V70.8a3,3,0,0,1-2.37,1,2.41,2.41,0,0,1-2.52-2.4A2.34,2.34,0,0,1,119.08,67a3,3,0,0,1,2.37,1v-1.2c0-.9-.73-1.44-1.77-1.44a2.77,2.77,0,0,0-1.78.63.62.62,0,0,1-.33.11.56.56,0,0,1-.54-.56.53.53,0,0,1,.22-.43,4,4,0,0,1,2.64-.9C121.47,64.19,122.8,64.88,122.8,66.72ZM121.45,70V68.79a2.28,2.28,0,0,0-1.86-.82,1.45,1.45,0,1,0,0,2.88A2.29,2.29,0,0,0,121.45,70Z"/>
            <path class="cls-3" d="M128.77,64.89c0,.32-.24.59-.7.65a2.6,2.6,0,0,0-1.76,1V71A.68.68,0,1,1,125,71V65a.67.67,0,0,1,.66-.68.68.68,0,0,1,.69.68v.51a3.39,3.39,0,0,1,1.5-1.16,1.7,1.7,0,0,1,.39-.07A.57.57,0,0,1,128.77,64.89Z"/>
            <path class="cls-3" d="M133.21,64.19a3.48,3.48,0,0,1,3.53,3.6c0,.4-.29.64-.8.64H131a2.38,2.38,0,0,0,2.46,2.25,3.12,3.12,0,0,0,1.81-.58.46.46,0,0,1,.3-.08.54.54,0,0,1,.54.54.52.52,0,0,1-.24.45,4.18,4.18,0,0,1-2.54.78,3.8,3.8,0,0,1-.12-7.6ZM131,67.46h4.43a2.15,2.15,0,0,0-2.21-2.16A2.22,2.22,0,0,0,131,67.46Z"/>
            <path class="cls-3" d="M145.67,71.07a.5.5,0,0,1-.34.51,2.42,2.42,0,0,1-1,.21A1.57,1.57,0,0,1,142.57,70V65.55h-.69a.59.59,0,1,1,0-1.18h.69V63a.68.68,0,1,1,1.35,0v1.38h1a.59.59,0,1,1,0,1.18h-1v4.16c0,.51.24.88.71.88.25,0,.34-.09.48-.09A.54.54,0,0,1,145.67,71.07Z"/>
            <path class="cls-3" d="M151.78,71V67c0-1.2-.61-1.56-1.54-1.56a2.6,2.6,0,0,0-2,1V71a.69.69,0,0,1-.67.68.67.67,0,0,1-.68-.68v-8.8a.67.67,0,0,1,.68-.68.69.69,0,0,1,.67.68v3.18a3.47,3.47,0,0,1,2.56-1.2,2.06,2.06,0,0,1,2.33,2.31V71a.67.67,0,0,1-.67.68A.68.68,0,0,1,151.78,71Z"/>
            <path class="cls-3" d="M158.47,64.19a3.48,3.48,0,0,1,3.53,3.6c0,.4-.29.64-.8.64h-4.94a2.38,2.38,0,0,0,2.46,2.25,3.12,3.12,0,0,0,1.81-.58.46.46,0,0,1,.3-.08.54.54,0,0,1,.54.54.52.52,0,0,1-.24.45,4.18,4.18,0,0,1-2.54.78,3.8,3.8,0,0,1-.12-7.6Zm-2.22,3.27h4.42a2.14,2.14,0,0,0-2.2-2.16A2.22,2.22,0,0,0,156.25,67.46Z"/>
            <path class="cls-3" d="M172.21,61.44a5.18,5.18,0,1,1-5,5.18A4.92,4.92,0,0,1,172.21,61.44Zm0,1.34c-2.14,0-3.5,1.63-3.5,3.84s1.36,3.84,3.5,3.84a3.86,3.86,0,0,0,0-7.68Z"/>
            <path class="cls-3" d="M179,71v-8.8a.67.67,0,1,1,1.34,0V71A.67.67,0,1,1,179,71Z"/>
            <path class="cls-3" d="M189,62.21V71a.68.68,0,1,1-1.35,0v-.43a3,3,0,0,1-2.37,1.21c-1.89,0-3.24-1.42-3.24-3.79s1.35-3.81,3.24-3.81a2.9,2.9,0,0,1,2.37,1.23V62.21a.68.68,0,1,1,1.35,0Zm-1.35,7.33V66.45a2.53,2.53,0,0,0-2-1.06c-1.35,0-2.19,1.09-2.19,2.61s.84,2.59,2.19,2.59A2.49,2.49,0,0,0,187.69,69.54Z"/>
            <path class="cls-3" d="M191.89,69.9a1,1,0,0,1,1,.93,1,1,0,0,1-1,1,1,1,0,0,1-.93-1A.93.93,0,0,1,191.89,69.9Z"/>
            <path class="cls-3" d="M198.67,70.82V62.4a.72.72,0,0,1,.81-.79h2.76a5,5,0,1,1,0,10h-2.76A.72.72,0,0,1,198.67,70.82Zm3.57-.53a3.68,3.68,0,0,0,0-7.36h-2.07v7.36Z"/>
            <path class="cls-3" d="M209,62.06a.88.88,0,0,1,.87-.86.87.87,0,1,1,0,1.73A.88.88,0,0,1,209,62.06Zm.21,9V65a.68.68,0,1,1,1.35,0v6a.68.68,0,0,1-.69.68A.67.67,0,0,1,209.21,71Z"/>
            <path class="cls-3" d="M212.2,70.5a.57.57,0,0,1,.58-.58.61.61,0,0,1,.33.1,3.5,3.5,0,0,0,2,.69c1,0,1.56-.42,1.56-1s-.82-1-1.75-1.17c-1.23-.29-2.67-.62-2.67-2.18,0-1.15,1-2.14,2.76-2.14a4,4,0,0,1,2.41.75.54.54,0,0,1,.24.45.55.55,0,0,1-.55.55.49.49,0,0,1-.3-.1,3,3,0,0,0-1.79-.56c-.91,0-1.48.36-1.48,1s.78.84,1.68,1c1.26.28,2.76.63,2.76,2.29,0,1.25-1,2.22-2.93,2.22a4.27,4.27,0,0,1-2.64-.81A.58.58,0,0,1,212.2,70.5Z"/>
            <path class="cls-3" d="M223,64.19a3.25,3.25,0,0,1,2.31.84.62.62,0,0,1,.21.45.6.6,0,0,1-.6.61.62.62,0,0,1-.41-.15,2,2,0,0,0-1.45-.55,2.61,2.61,0,0,0,0,5.2,2,2,0,0,0,1.45-.55.57.57,0,0,1,.39-.15.61.61,0,0,1,.62.6.62.62,0,0,1-.21.46,3.25,3.25,0,0,1-2.31.84,3.8,3.8,0,0,1,0-7.6Z"/>
            <path class="cls-3" d="M226.72,68a3.66,3.66,0,1,1,3.66,3.81A3.59,3.59,0,0,1,226.72,68Zm5.91,0a2.27,2.27,0,1,0-2.25,2.61A2.35,2.35,0,0,0,232.63,68Z"/>
            <path class="cls-3" d="M241.81,65a.88.88,0,0,1-.06.27L239.36,71a1,1,0,0,1-1,.65,1,1,0,0,1-1-.65L235,65.22A.66.66,0,0,1,235,65a.66.66,0,0,1,.66-.68.69.69,0,0,1,.63.42l2.12,5.37,2.11-5.37a.68.68,0,0,1,.63-.42A.67.67,0,0,1,241.81,65Z"/>
            <path class="cls-3" d="M246.38,64.19a3.47,3.47,0,0,1,3.53,3.6c0,.4-.29.64-.8.64h-4.93a2.37,2.37,0,0,0,2.46,2.25,3.11,3.11,0,0,0,1.8-.58.46.46,0,0,1,.3-.08.54.54,0,0,1,.54.54A.52.52,0,0,1,249,71a4.18,4.18,0,0,1-2.54.78,3.8,3.8,0,0,1-.12-7.6Zm-2.22,3.27h4.43a2.15,2.15,0,0,0-2.21-2.16A2.23,2.23,0,0,0,244.16,67.46Z"/>
            <path class="cls-3" d="M255.41,64.89c0,.32-.24.59-.7.65a2.6,2.6,0,0,0-1.76,1V71a.68.68,0,1,1-1.35,0V65a.67.67,0,0,1,.66-.68A.68.68,0,0,1,253,65v.51a3.39,3.39,0,0,1,1.5-1.16,1.7,1.7,0,0,1,.39-.07A.57.57,0,0,1,255.41,64.89Z"/>
            <path class="cls-3" d="M263.92,71.07a.51.51,0,0,1-.35.51,2.4,2.4,0,0,1-1,.21A1.58,1.58,0,0,1,260.81,70V65.55h-.69a.59.59,0,1,1,0-1.18h.69V63a.68.68,0,1,1,1.35,0v1.38h.95a.59.59,0,1,1,0,1.18h-.95v4.16c0,.51.24.88.71.88.25,0,.34-.09.48-.09A.55.55,0,0,1,263.92,71.07Z"/>
            <path class="cls-3" d="M270,71V67c0-1.2-.61-1.56-1.54-1.56a2.6,2.6,0,0,0-2,1V71a.68.68,0,1,1-1.35,0v-8.8a.68.68,0,1,1,1.35,0v3.18a3.48,3.48,0,0,1,2.57-1.2,2.05,2.05,0,0,1,2.32,2.31V71a.67.67,0,0,1-.67.68A.69.69,0,0,1,270,71Z"/>
            <path class="cls-3" d="M276.71,64.19a3.47,3.47,0,0,1,3.53,3.6c0,.4-.29.64-.8.64h-4.93A2.37,2.37,0,0,0,277,70.68a3.11,3.11,0,0,0,1.8-.58.46.46,0,0,1,.3-.08.54.54,0,0,1,.54.54.52.52,0,0,1-.24.45,4.18,4.18,0,0,1-2.54.78,3.8,3.8,0,0,1-.12-7.6Zm-2.22,3.27h4.43a2.15,2.15,0,0,0-2.21-2.16A2.23,2.23,0,0,0,274.49,67.46Z"/>
            <path class="cls-3" d="M292.64,71.3l-5.31-7.37v7a.75.75,0,0,1-.73.75.77.77,0,0,1-.77-.75V62.52a1,1,0,0,1,1-1,1,1,0,0,1,.8.41l5.2,7.17V62.28a.75.75,0,0,1,.74-.75.76.76,0,0,1,.76.75v8.48a.93.93,0,0,1-.93.93A.89.89,0,0,1,292.64,71.3Z"/>
            <path class="cls-3" d="M299.69,64.19a3.47,3.47,0,0,1,3.53,3.6c0,.4-.29.64-.8.64h-4.93A2.37,2.37,0,0,0,300,70.68a3.11,3.11,0,0,0,1.8-.58.46.46,0,0,1,.3-.08.54.54,0,0,1,.54.54.52.52,0,0,1-.24.45,4.18,4.18,0,0,1-2.54.78,3.8,3.8,0,0,1-.12-7.6Zm-2.22,3.27h4.43a2.15,2.15,0,0,0-2.21-2.16A2.23,2.23,0,0,0,297.47,67.46Z"/>
            <path class="cls-3" d="M311,71l-1.61-5-1.6,5a.91.91,0,0,1-.87.65.88.88,0,0,1-.87-.65l-1.86-5.88a.67.67,0,0,1,.63-.87.65.65,0,0,1,.64.48L307,69.89l1.67-5.06a.77.77,0,0,1,1.47,0l1.66,5.06,1.53-5.12a.66.66,0,0,1,.65-.48.67.67,0,0,1,.66.68,1.52,1.52,0,0,1,0,.21L312.76,71A.91.91,0,0,1,311,71Z"/>
          </g>
        </g>
      </g>
      <g id="Group_240" data-name="Group 240">
        <path id="Path_40" data-name="Path 40" class="cls-2" d="M13.32,0h0A3.32,3.32,0,0,0,11,1a3.19,3.19,0,0,0-1,2.31V52.1a3.3,3.3,0,0,0,3.33,3.25c7.75,0,20.72,1.6,29.67,10.77V15a3,3,0,0,0-.46-1.65C35.2,1.78,21.08,0,13.32,0Z"/>
        <path id="Path_41" data-name="Path 41" class="cls-2" d="M81,52.1V3.26A3.19,3.19,0,0,0,80,1,3.32,3.32,0,0,0,77.69,0h0C69.92,0,55.81,1.78,48.46,13.36A3,3,0,0,0,48,15V66.12C57,57,69.93,55.37,77.67,55.35A3.29,3.29,0,0,0,81,52.1Z"/>
        <path id="Path_42" data-name="Path 42" class="cls-3" d="M88.53,0H86V52.55c0,5.89-4,10.69-8.87,10.7-6.86,0-18.19,1.64-26.2,10.79,13.86-4.09,28.48-1.43,36.81.85a3,3,0,0,0,3-.81A4.48,4.48,0,0,0,92,70.81V4.19C92,1.88,90.44,0,88.53,0Z"/>
        <path id="Path_43" data-name="Path 43" class="cls-3" d="M6,52.56V0H3.48C1.56,0,0,1.88,0,4.19V70.81a4.48,4.48,0,0,0,1.31,3.27,3,3,0,0,0,2.95.81c8.33-2.28,23-4.94,36.82-.85-8-9.15-19.34-10.77-26.21-10.79C10,63.24,6,58.44,6,52.56Z"/>
      </g>
    </g>
  </g>
</svg>
