<svg xmlns="http://www.w3.org/2000/svg" viewBox="0 0 94.92 75.03"><defs><style>.cls-1{fill:#f6f5f3;}.cls-2{fill:#d4b483;}</style></defs><g id="Layer_2" data-name="Layer 2"><g id="Layer_4" data-name="Layer 4"><path id="Path_40" data-name="Path 40" class="cls-1" d="M13.84,0h0A3.35,3.35,0,0,0,11.5,1a3.18,3.18,0,0,0-1,2.31V52.1a3.29,3.29,0,0,0,3.33,3.25c7.74,0,20.71,1.6,29.67,10.77V15a3.21,3.21,0,0,0-.46-1.65C35.72,1.78,21.61,0,13.84,0Z"/><path id="Path_41" data-name="Path 41" class="cls-1" d="M80.71,52.1V3.26a3.19,3.19,0,0,0-1-2.31A3.32,3.32,0,0,0,77.4,0h0C69.63,0,55.52,1.78,48.17,13.36A3,3,0,0,0,47.71,15V66.12C56.66,57,69.64,55.37,77.38,55.35A3.29,3.29,0,0,0,80.71,52.1Z"/><path id="Path_42" data-name="Path 42" class="cls-2" d="M91.54,0H89.08V52.58c0,5.89-3.87,10.69-8.64,10.7-6.68,0-17.71,1.64-25.52,10.79,13.51-4.09,27.74-1.43,35.86.86a2.93,2.93,0,0,0,2.87-.81,4.59,4.59,0,0,0,1.27-3.28V4.22C94.92,1.91,93.4,0,91.54,0Z"/><path id="Path_43" data-name="Path 43" class="cls-2" d="M5.84,52.56V0H3.39C1.52,0,0,1.88,0,4.19V70.81a4.61,4.61,0,0,0,1.27,3.27,2.89,2.89,0,0,0,2.88.81C12.26,72.6,26.5,69.94,40,74c-7.81-9.15-18.83-10.77-25.52-10.79C9.72,63.24,5.84,58.44,5.84,52.56Z"/></g></g></svg>